<mxfile host="app.diagrams.net" modified="2023-04-29T15:34:20.395Z" agent="Mozilla/5.0 (Windows NT 10.0; Win64; x64) AppleWebKit/537.36 (KHTML, like Gecko) Chrome/112.0.0.0 Safari/537.36" etag="QpSJoTdVQTHvVwncZ2kl" version="21.2.3" type="device">
  <diagram name="Page-1" id="AtCEUi3Ivs8-BTCOAf8i">
    <mxGraphModel dx="1434" dy="731" grid="1" gridSize="10" guides="1" tooltips="1" connect="1" arrows="1" fold="1" page="1" pageScale="1" pageWidth="850" pageHeight="1100" math="0" shadow="0">
      <root>
        <mxCell id="0" />
        <mxCell id="1" parent="0" />
        <mxCell id="0QLwfuUMhEsKt34INwdz-52" value="&lt;b&gt;project&lt;/b&gt;" style="swimlane;whiteSpace=wrap;html=1;startSize=30;fillColor=#d5e8d4;strokeColor=#82b366;" vertex="1" parent="1">
          <mxGeometry x="80" y="50" width="200" height="270" as="geometry">
            <mxRectangle x="80" y="50" width="80" height="30" as="alternateBounds" />
          </mxGeometry>
        </mxCell>
        <mxCell id="0QLwfuUMhEsKt34INwdz-53" value="" style="endArrow=none;html=1;rounded=0;" edge="1" parent="0QLwfuUMhEsKt34INwdz-52">
          <mxGeometry width="50" height="50" relative="1" as="geometry">
            <mxPoint y="70" as="sourcePoint" />
            <mxPoint x="200" y="70" as="targetPoint" />
          </mxGeometry>
        </mxCell>
        <mxCell id="0QLwfuUMhEsKt34INwdz-57" value="" style="endArrow=none;html=1;rounded=0;" edge="1" parent="0QLwfuUMhEsKt34INwdz-52">
          <mxGeometry width="50" height="50" relative="1" as="geometry">
            <mxPoint x="40" y="110" as="sourcePoint" />
            <mxPoint x="200" y="110" as="targetPoint" />
          </mxGeometry>
        </mxCell>
        <mxCell id="0QLwfuUMhEsKt34INwdz-60" value="" style="endArrow=none;html=1;rounded=0;" edge="1" parent="0QLwfuUMhEsKt34INwdz-52">
          <mxGeometry width="50" height="50" relative="1" as="geometry">
            <mxPoint x="40" y="150" as="sourcePoint" />
            <mxPoint x="200" y="150" as="targetPoint" />
          </mxGeometry>
        </mxCell>
        <mxCell id="0QLwfuUMhEsKt34INwdz-59" value="" style="endArrow=none;html=1;rounded=0;" edge="1" parent="0QLwfuUMhEsKt34INwdz-52">
          <mxGeometry width="50" height="50" relative="1" as="geometry">
            <mxPoint x="40" y="190" as="sourcePoint" />
            <mxPoint x="200" y="190" as="targetPoint" />
          </mxGeometry>
        </mxCell>
        <mxCell id="0QLwfuUMhEsKt34INwdz-61" value="project_id" style="text;html=1;align=center;verticalAlign=middle;resizable=0;points=[];autosize=1;strokeColor=none;fillColor=none;" vertex="1" parent="0QLwfuUMhEsKt34INwdz-52">
          <mxGeometry x="80" y="38" width="80" height="30" as="geometry" />
        </mxCell>
        <mxCell id="0QLwfuUMhEsKt34INwdz-65" value="actual_hours" style="text;html=1;align=center;verticalAlign=middle;resizable=0;points=[];autosize=1;strokeColor=none;fillColor=none;" vertex="1" parent="0QLwfuUMhEsKt34INwdz-52">
          <mxGeometry x="80" y="158" width="90" height="30" as="geometry" />
        </mxCell>
        <mxCell id="0QLwfuUMhEsKt34INwdz-68" value="" style="endArrow=none;html=1;rounded=0;" edge="1" parent="0QLwfuUMhEsKt34INwdz-52">
          <mxGeometry width="50" height="50" relative="1" as="geometry">
            <mxPoint x="40" y="230" as="sourcePoint" />
            <mxPoint x="200" y="230" as="targetPoint" />
          </mxGeometry>
        </mxCell>
        <mxCell id="0QLwfuUMhEsKt34INwdz-69" value="" style="endArrow=none;html=1;rounded=0;" edge="1" parent="0QLwfuUMhEsKt34INwdz-52">
          <mxGeometry width="50" height="50" relative="1" as="geometry">
            <mxPoint x="40" y="30" as="sourcePoint" />
            <mxPoint x="40" y="270" as="targetPoint" />
          </mxGeometry>
        </mxCell>
        <mxCell id="0QLwfuUMhEsKt34INwdz-62" value="PK" style="text;html=1;align=center;verticalAlign=middle;resizable=0;points=[];autosize=1;strokeColor=none;fillColor=none;" vertex="1" parent="1">
          <mxGeometry x="80" y="88" width="40" height="30" as="geometry" />
        </mxCell>
        <mxCell id="0QLwfuUMhEsKt34INwdz-63" value="project_name" style="text;html=1;align=center;verticalAlign=middle;resizable=0;points=[];autosize=1;strokeColor=none;fillColor=none;" vertex="1" parent="1">
          <mxGeometry x="150" y="128" width="100" height="30" as="geometry" />
        </mxCell>
        <mxCell id="0QLwfuUMhEsKt34INwdz-64" value="estimated_hours" style="text;html=1;align=center;verticalAlign=middle;resizable=0;points=[];autosize=1;strokeColor=none;fillColor=none;" vertex="1" parent="1">
          <mxGeometry x="145" y="168" width="110" height="30" as="geometry" />
        </mxCell>
        <mxCell id="0QLwfuUMhEsKt34INwdz-66" value="difficulty" style="text;html=1;align=center;verticalAlign=middle;resizable=0;points=[];autosize=1;strokeColor=none;fillColor=none;" vertex="1" parent="1">
          <mxGeometry x="155" y="248" width="70" height="30" as="geometry" />
        </mxCell>
        <mxCell id="0QLwfuUMhEsKt34INwdz-67" value="notes" style="text;html=1;align=center;verticalAlign=middle;resizable=0;points=[];autosize=1;strokeColor=none;fillColor=none;" vertex="1" parent="1">
          <mxGeometry x="165" y="288" width="50" height="30" as="geometry" />
        </mxCell>
        <mxCell id="0QLwfuUMhEsKt34INwdz-71" value="&lt;b&gt;material&lt;/b&gt;" style="swimlane;whiteSpace=wrap;html=1;startSize=30;fillColor=#d5e8d4;strokeColor=#82b366;" vertex="1" parent="1">
          <mxGeometry x="480" y="50" width="200" height="230" as="geometry">
            <mxRectangle x="480" y="50" width="90" height="30" as="alternateBounds" />
          </mxGeometry>
        </mxCell>
        <mxCell id="0QLwfuUMhEsKt34INwdz-72" value="" style="endArrow=none;html=1;rounded=0;" edge="1" parent="0QLwfuUMhEsKt34INwdz-71">
          <mxGeometry width="50" height="50" relative="1" as="geometry">
            <mxPoint y="70" as="sourcePoint" />
            <mxPoint x="200" y="70" as="targetPoint" />
          </mxGeometry>
        </mxCell>
        <mxCell id="0QLwfuUMhEsKt34INwdz-73" value="" style="endArrow=none;html=1;rounded=0;" edge="1" parent="0QLwfuUMhEsKt34INwdz-71">
          <mxGeometry width="50" height="50" relative="1" as="geometry">
            <mxPoint x="40" y="110" as="sourcePoint" />
            <mxPoint x="200" y="110" as="targetPoint" />
          </mxGeometry>
        </mxCell>
        <mxCell id="0QLwfuUMhEsKt34INwdz-74" value="" style="endArrow=none;html=1;rounded=0;" edge="1" parent="0QLwfuUMhEsKt34INwdz-71">
          <mxGeometry width="50" height="50" relative="1" as="geometry">
            <mxPoint x="40" y="150" as="sourcePoint" />
            <mxPoint x="200" y="150" as="targetPoint" />
          </mxGeometry>
        </mxCell>
        <mxCell id="0QLwfuUMhEsKt34INwdz-75" value="" style="endArrow=none;html=1;rounded=0;" edge="1" parent="0QLwfuUMhEsKt34INwdz-71">
          <mxGeometry width="50" height="50" relative="1" as="geometry">
            <mxPoint x="40" y="190" as="sourcePoint" />
            <mxPoint x="200" y="190" as="targetPoint" />
          </mxGeometry>
        </mxCell>
        <mxCell id="0QLwfuUMhEsKt34INwdz-76" value="material_id" style="text;html=1;align=center;verticalAlign=middle;resizable=0;points=[];autosize=1;strokeColor=none;fillColor=none;" vertex="1" parent="0QLwfuUMhEsKt34INwdz-71">
          <mxGeometry x="80" y="38" width="80" height="30" as="geometry" />
        </mxCell>
        <mxCell id="0QLwfuUMhEsKt34INwdz-77" value="num_required" style="text;html=1;align=center;verticalAlign=middle;resizable=0;points=[];autosize=1;strokeColor=none;fillColor=none;" vertex="1" parent="0QLwfuUMhEsKt34INwdz-71">
          <mxGeometry x="75" y="158" width="100" height="30" as="geometry" />
        </mxCell>
        <mxCell id="0QLwfuUMhEsKt34INwdz-79" value="" style="endArrow=none;html=1;rounded=0;" edge="1" parent="0QLwfuUMhEsKt34INwdz-71">
          <mxGeometry width="50" height="50" relative="1" as="geometry">
            <mxPoint x="40" y="30" as="sourcePoint" />
            <mxPoint x="40" y="230" as="targetPoint" />
          </mxGeometry>
        </mxCell>
        <mxCell id="0QLwfuUMhEsKt34INwdz-81" value="project_id" style="text;html=1;align=center;verticalAlign=middle;resizable=0;points=[];autosize=1;strokeColor=none;fillColor=none;" vertex="1" parent="0QLwfuUMhEsKt34INwdz-71">
          <mxGeometry x="80" y="78" width="80" height="30" as="geometry" />
        </mxCell>
        <mxCell id="0QLwfuUMhEsKt34INwdz-83" value="material_name" style="text;html=1;align=center;verticalAlign=middle;resizable=0;points=[];autosize=1;strokeColor=none;fillColor=none;" vertex="1" parent="0QLwfuUMhEsKt34INwdz-71">
          <mxGeometry x="80" y="120" width="100" height="30" as="geometry" />
        </mxCell>
        <mxCell id="0QLwfuUMhEsKt34INwdz-80" value="PK" style="text;html=1;align=center;verticalAlign=middle;resizable=0;points=[];autosize=1;strokeColor=none;fillColor=none;" vertex="1" parent="1">
          <mxGeometry x="480" y="88" width="40" height="30" as="geometry" />
        </mxCell>
        <mxCell id="0QLwfuUMhEsKt34INwdz-84" value="cost" style="text;html=1;align=center;verticalAlign=middle;resizable=0;points=[];autosize=1;strokeColor=none;fillColor=none;" vertex="1" parent="1">
          <mxGeometry x="565" y="248" width="50" height="30" as="geometry" />
        </mxCell>
        <mxCell id="0QLwfuUMhEsKt34INwdz-86" value="FK" style="text;html=1;align=center;verticalAlign=middle;resizable=0;points=[];autosize=1;strokeColor=none;fillColor=none;" vertex="1" parent="1">
          <mxGeometry x="480" y="128" width="40" height="30" as="geometry" />
        </mxCell>
        <mxCell id="0QLwfuUMhEsKt34INwdz-87" value="&lt;b&gt;step&lt;/b&gt;" style="swimlane;whiteSpace=wrap;html=1;startSize=30;fillColor=#d5e8d4;strokeColor=#82b366;" vertex="1" parent="1">
          <mxGeometry x="480" y="330" width="200" height="190" as="geometry">
            <mxRectangle x="480" y="50" width="90" height="30" as="alternateBounds" />
          </mxGeometry>
        </mxCell>
        <mxCell id="0QLwfuUMhEsKt34INwdz-88" value="" style="endArrow=none;html=1;rounded=0;" edge="1" parent="0QLwfuUMhEsKt34INwdz-87">
          <mxGeometry width="50" height="50" relative="1" as="geometry">
            <mxPoint y="70" as="sourcePoint" />
            <mxPoint x="200" y="70" as="targetPoint" />
          </mxGeometry>
        </mxCell>
        <mxCell id="0QLwfuUMhEsKt34INwdz-89" value="" style="endArrow=none;html=1;rounded=0;" edge="1" parent="0QLwfuUMhEsKt34INwdz-87">
          <mxGeometry width="50" height="50" relative="1" as="geometry">
            <mxPoint x="40" y="110" as="sourcePoint" />
            <mxPoint x="200" y="110" as="targetPoint" />
          </mxGeometry>
        </mxCell>
        <mxCell id="0QLwfuUMhEsKt34INwdz-90" value="" style="endArrow=none;html=1;rounded=0;" edge="1" parent="0QLwfuUMhEsKt34INwdz-87">
          <mxGeometry width="50" height="50" relative="1" as="geometry">
            <mxPoint x="40" y="150" as="sourcePoint" />
            <mxPoint x="200" y="150" as="targetPoint" />
          </mxGeometry>
        </mxCell>
        <mxCell id="0QLwfuUMhEsKt34INwdz-92" value="step_id" style="text;html=1;align=center;verticalAlign=middle;resizable=0;points=[];autosize=1;strokeColor=none;fillColor=none;" vertex="1" parent="0QLwfuUMhEsKt34INwdz-87">
          <mxGeometry x="90" y="38" width="60" height="30" as="geometry" />
        </mxCell>
        <mxCell id="0QLwfuUMhEsKt34INwdz-93" value="step_order" style="text;html=1;align=center;verticalAlign=middle;resizable=0;points=[];autosize=1;strokeColor=none;fillColor=none;" vertex="1" parent="0QLwfuUMhEsKt34INwdz-87">
          <mxGeometry x="85" y="158" width="80" height="30" as="geometry" />
        </mxCell>
        <mxCell id="0QLwfuUMhEsKt34INwdz-95" value="" style="endArrow=none;html=1;rounded=0;" edge="1" parent="0QLwfuUMhEsKt34INwdz-87">
          <mxGeometry width="50" height="50" relative="1" as="geometry">
            <mxPoint x="40" y="30" as="sourcePoint" />
            <mxPoint x="40" y="190" as="targetPoint" />
          </mxGeometry>
        </mxCell>
        <mxCell id="0QLwfuUMhEsKt34INwdz-96" value="project_id" style="text;html=1;align=center;verticalAlign=middle;resizable=0;points=[];autosize=1;strokeColor=none;fillColor=none;" vertex="1" parent="0QLwfuUMhEsKt34INwdz-87">
          <mxGeometry x="80" y="78" width="80" height="30" as="geometry" />
        </mxCell>
        <mxCell id="0QLwfuUMhEsKt34INwdz-97" value="step_text" style="text;html=1;align=center;verticalAlign=middle;resizable=0;points=[];autosize=1;strokeColor=none;fillColor=none;" vertex="1" parent="0QLwfuUMhEsKt34INwdz-87">
          <mxGeometry x="95" y="120" width="70" height="30" as="geometry" />
        </mxCell>
        <mxCell id="0QLwfuUMhEsKt34INwdz-109" value="PK" style="text;html=1;align=center;verticalAlign=middle;resizable=0;points=[];autosize=1;strokeColor=none;fillColor=none;" vertex="1" parent="1">
          <mxGeometry x="480" y="368" width="40" height="30" as="geometry" />
        </mxCell>
        <mxCell id="0QLwfuUMhEsKt34INwdz-110" value="FK" style="text;html=1;align=center;verticalAlign=middle;resizable=0;points=[];autosize=1;strokeColor=none;fillColor=none;" vertex="1" parent="1">
          <mxGeometry x="480" y="408" width="40" height="30" as="geometry" />
        </mxCell>
        <mxCell id="0QLwfuUMhEsKt34INwdz-111" value="&lt;b&gt;category&lt;/b&gt;" style="swimlane;whiteSpace=wrap;html=1;startSize=30;fillColor=#d5e8d4;strokeColor=#82b366;" vertex="1" parent="1">
          <mxGeometry x="80" y="530" width="200" height="112" as="geometry">
            <mxRectangle x="480" y="50" width="90" height="30" as="alternateBounds" />
          </mxGeometry>
        </mxCell>
        <mxCell id="0QLwfuUMhEsKt34INwdz-112" value="" style="endArrow=none;html=1;rounded=0;" edge="1" parent="0QLwfuUMhEsKt34INwdz-111">
          <mxGeometry width="50" height="50" relative="1" as="geometry">
            <mxPoint y="70" as="sourcePoint" />
            <mxPoint x="200" y="70" as="targetPoint" />
          </mxGeometry>
        </mxCell>
        <mxCell id="0QLwfuUMhEsKt34INwdz-116" value="category_id" style="text;html=1;align=center;verticalAlign=middle;resizable=0;points=[];autosize=1;strokeColor=none;fillColor=none;" vertex="1" parent="0QLwfuUMhEsKt34INwdz-111">
          <mxGeometry x="75" y="38" width="90" height="30" as="geometry" />
        </mxCell>
        <mxCell id="0QLwfuUMhEsKt34INwdz-118" value="" style="endArrow=none;html=1;rounded=0;" edge="1" parent="0QLwfuUMhEsKt34INwdz-111">
          <mxGeometry width="50" height="50" relative="1" as="geometry">
            <mxPoint x="40" y="30" as="sourcePoint" />
            <mxPoint x="40" y="112" as="targetPoint" />
          </mxGeometry>
        </mxCell>
        <mxCell id="0QLwfuUMhEsKt34INwdz-119" value="category_name" style="text;html=1;align=center;verticalAlign=middle;resizable=0;points=[];autosize=1;strokeColor=none;fillColor=none;" vertex="1" parent="0QLwfuUMhEsKt34INwdz-111">
          <mxGeometry x="65" y="78" width="110" height="30" as="geometry" />
        </mxCell>
        <mxCell id="0QLwfuUMhEsKt34INwdz-122" value="PK" style="text;html=1;align=center;verticalAlign=middle;resizable=0;points=[];autosize=1;strokeColor=none;fillColor=none;" vertex="1" parent="0QLwfuUMhEsKt34INwdz-111">
          <mxGeometry y="38" width="40" height="30" as="geometry" />
        </mxCell>
        <mxCell id="0QLwfuUMhEsKt34INwdz-124" value="&lt;b&gt;project_category&lt;/b&gt;" style="swimlane;whiteSpace=wrap;html=1;startSize=30;fillColor=#d5e8d4;strokeColor=#82b366;dashed=1;" vertex="1" parent="1">
          <mxGeometry x="80" y="369" width="200" height="111" as="geometry">
            <mxRectangle x="480" y="50" width="90" height="30" as="alternateBounds" />
          </mxGeometry>
        </mxCell>
        <mxCell id="0QLwfuUMhEsKt34INwdz-125" value="" style="endArrow=none;html=1;rounded=0;" edge="1" parent="0QLwfuUMhEsKt34INwdz-124">
          <mxGeometry width="50" height="50" relative="1" as="geometry">
            <mxPoint y="70" as="sourcePoint" />
            <mxPoint x="200" y="70" as="targetPoint" />
          </mxGeometry>
        </mxCell>
        <mxCell id="0QLwfuUMhEsKt34INwdz-126" value="project_id" style="text;html=1;align=center;verticalAlign=middle;resizable=0;points=[];autosize=1;strokeColor=none;fillColor=none;" vertex="1" parent="0QLwfuUMhEsKt34INwdz-124">
          <mxGeometry x="80" y="38" width="80" height="30" as="geometry" />
        </mxCell>
        <mxCell id="0QLwfuUMhEsKt34INwdz-127" value="" style="endArrow=none;html=1;rounded=0;dashed=1;" edge="1" parent="0QLwfuUMhEsKt34INwdz-124">
          <mxGeometry width="50" height="50" relative="1" as="geometry">
            <mxPoint x="80" y="31" as="sourcePoint" />
            <mxPoint x="80" y="111" as="targetPoint" />
          </mxGeometry>
        </mxCell>
        <mxCell id="0QLwfuUMhEsKt34INwdz-128" value="category_id" style="text;html=1;align=center;verticalAlign=middle;resizable=0;points=[];autosize=1;strokeColor=none;fillColor=none;" vertex="1" parent="0QLwfuUMhEsKt34INwdz-124">
          <mxGeometry x="75" y="78" width="90" height="30" as="geometry" />
        </mxCell>
        <mxCell id="0QLwfuUMhEsKt34INwdz-129" value="PK,FK1" style="text;html=1;align=center;verticalAlign=middle;resizable=0;points=[];autosize=1;strokeColor=none;fillColor=none;" vertex="1" parent="0QLwfuUMhEsKt34INwdz-124">
          <mxGeometry y="38" width="60" height="30" as="geometry" />
        </mxCell>
        <mxCell id="0QLwfuUMhEsKt34INwdz-130" value="PK,FK2" style="text;html=1;align=center;verticalAlign=middle;resizable=0;points=[];autosize=1;strokeColor=none;fillColor=none;" vertex="1" parent="0QLwfuUMhEsKt34INwdz-124">
          <mxGeometry y="78" width="60" height="30" as="geometry" />
        </mxCell>
        <mxCell id="0QLwfuUMhEsKt34INwdz-137" value="" style="edgeStyle=orthogonalEdgeStyle;fontSize=12;html=1;endArrow=ERzeroToMany;endFill=1;startArrow=ERzeroToMany;curved=1;entryX=0;entryY=0.4;entryDx=0;entryDy=0;entryPerimeter=0;" edge="1" parent="1" target="0QLwfuUMhEsKt34INwdz-62">
          <mxGeometry width="100" height="100" relative="1" as="geometry">
            <mxPoint x="80" y="586" as="sourcePoint" />
            <mxPoint x="55" y="140" as="targetPoint" />
            <Array as="points">
              <mxPoint x="30" y="586" />
              <mxPoint x="30" y="100" />
            </Array>
          </mxGeometry>
        </mxCell>
        <mxCell id="0QLwfuUMhEsKt34INwdz-138" value="" style="line;strokeWidth=1;rotatable=0;dashed=1;labelPosition=right;align=left;verticalAlign=middle;spacingTop=0;spacingLeft=6;points=[];portConstraint=eastwest;" vertex="1" parent="1">
          <mxGeometry x="30" y="418" width="50" height="10" as="geometry" />
        </mxCell>
        <mxCell id="0QLwfuUMhEsKt34INwdz-140" value="" style="edgeStyle=entityRelationEdgeStyle;fontSize=12;html=1;endArrow=ERzeroToMany;startArrow=ERmandOne;rounded=0;entryX=0.025;entryY=0.567;entryDx=0;entryDy=0;entryPerimeter=0;" edge="1" parent="1" target="0QLwfuUMhEsKt34INwdz-86">
          <mxGeometry width="100" height="100" relative="1" as="geometry">
            <mxPoint x="280" y="110" as="sourcePoint" />
            <mxPoint x="480" y="340" as="targetPoint" />
          </mxGeometry>
        </mxCell>
        <mxCell id="0QLwfuUMhEsKt34INwdz-141" value="" style="edgeStyle=entityRelationEdgeStyle;fontSize=12;html=1;endArrow=ERzeroToMany;startArrow=ERmandOne;rounded=0;" edge="1" parent="1">
          <mxGeometry width="100" height="100" relative="1" as="geometry">
            <mxPoint x="280" y="140" as="sourcePoint" />
            <mxPoint x="480" y="424" as="targetPoint" />
          </mxGeometry>
        </mxCell>
      </root>
    </mxGraphModel>
  </diagram>
</mxfile>
